<svg xmlns="http://www.w3.org/2000/svg" width="208" height="127" viewBox="0 0 208 127" fill="none"><path d="M23.0573 74.2653C41.1413 80.7779 61.1637 71.3661 67.6763 53.2822C68.4755 51.0546 69.0537 48.7335 69.3938 46.387L5.8916 60.866C10.0151 67.013 16.0686 71.7572 23.0573 74.2653Z" fill="white"></path><path d="M46.6848 8.6975C33.9061 4.09787 19.3165 7.51571 9.8877 17.1741L62.014 19.6142C58.0181 14.6405 52.7468 10.8825 46.6848 8.6975Z" fill="white"></path><path d="M15.2263 20.3452L69.7247 42.3911C69.9033 35.4619 67.9563 28.4987 64.1898 22.6408L15.2178 20.3452H15.2263Z" fill="white"></path><path d="M4.29308 58.2391L66.2223 44.1256L7.2178 20.2517C5.02426 23.1084 3.28983 26.2797 2.06553 29.672C-1.32681 39.0839 -0.510607 49.4649 4.29308 58.2391Z" fill="white"></path><path d="M92.255 38.8202H84.6626V12.0471H92.255V38.8202ZM88.5651 8.65474C87.2472 8.65474 86.142 8.15311 85.2577 7.15837C84.6371 6.4527 84.2545 5.52597 84.212 4.59074C84.1355 3.00935 84.7986 1.70853 86.1845 0.679772C86.5586 0.407705 86.9922 0.212157 87.4428 0.118634C89.1092 -0.22145 90.495 0.169646 91.6003 1.29192C92.6716 2.38019 93.0627 3.73203 92.7736 5.33892C92.6886 5.80654 92.493 6.25715 92.221 6.64824C91.2687 7.98307 90.0529 8.64624 88.5651 8.64624" fill="white"></path><path d="M97.8662 25.404C97.8662 21.5611 99.235 18.2707 101.964 15.5331C104.693 12.8039 108.001 11.4351 111.886 11.4351C115.772 11.4351 119.104 12.9569 122.208 15.9922L116.945 21.408C115.321 19.7246 113.638 18.8744 111.886 18.8744C110.135 18.8744 108.511 19.512 107.227 20.7959C105.977 22.0457 105.357 23.5761 105.357 25.404C105.357 27.232 105.977 28.8133 107.227 30.0631C108.511 31.347 110.058 31.9846 111.886 31.9846C113.714 31.9846 115.381 31.1769 116.996 29.553L122.259 34.8158C119.189 37.8851 115.729 39.424 111.886 39.424C108.043 39.424 104.702 38.0551 101.964 35.3259C99.235 32.5968 97.8662 29.2895 97.8662 25.404Z" fill="white"></path><path d="M139.069 32.1887C140.82 32.1887 142.342 31.534 143.626 30.2162C144.876 28.8984 145.53 27.351 145.598 25.5571V25.353C145.564 23.5336 144.91 21.9607 143.626 20.6428C142.342 19.325 140.82 18.6704 139.069 18.6704C137.317 18.6704 135.761 19.342 134.512 20.6939C133.228 22.0457 132.59 23.6101 132.59 25.404C132.59 27.198 133.228 28.7793 134.512 30.1652C135.761 31.517 137.275 32.1887 139.069 32.1887ZM145.598 12.0472H153.191V38.8203H145.598V35.2749C144.111 37.9786 141.551 39.3219 137.904 39.3219C134.257 39.3219 131.323 37.9701 128.798 35.2749C126.299 32.5798 125.049 29.2895 125.049 25.404C125.049 21.5186 126.282 18.2027 128.747 15.5331C131.238 12.8379 134.342 11.4861 138.057 11.4861C139.502 11.4861 140.922 11.8007 142.308 12.4213C143.694 13.042 144.791 13.9177 145.598 15.0315V12.0472Z" fill="white"></path><path d="M169.734 12.0472H175.303V19.5376H169.734V38.8203H162.142V19.5376H157.083V12.0472H162.142V3.39209H169.734V12.0472Z" fill="white"></path><path d="M106.777 55.0508V71.0943H99.2864V55.4079C99.2864 54.1241 98.9463 53.1208 98.2747 52.3982C97.603 51.6755 96.7358 51.3099 95.69 51.3099C94.6443 51.3099 93.7856 51.684 93.1054 52.4237C92.4337 53.1634 92.0936 54.1581 92.0936 55.4079V71.0943H84.6543V44.3212H92.0936V47.6625C92.7908 46.0811 94.0236 44.9248 95.7835 44.2107C96.6593 43.8536 97.6115 43.7175 98.5637 43.7175H98.8783C99.822 43.7175 100.936 44.0066 102.22 44.5762C103.503 45.1544 104.532 46.1661 105.306 47.6115C107.227 45.0098 109.829 43.7175 113.102 43.7175H113.204C116.07 43.7855 118.229 44.9673 119.683 47.2629C120.865 49.0483 121.451 51.4629 121.451 54.4982V71.0943H113.961V55.4079C113.961 54.1241 113.621 53.1208 112.949 52.3982C112.278 51.6755 111.41 51.3099 110.365 51.3099C109.387 51.3099 108.562 51.65 107.882 52.3217C107.202 52.9933 106.836 53.9115 106.768 55.0508" fill="white"></path><path d="M139.366 64.4624C141.117 64.4624 142.639 63.8077 143.923 62.4899C145.173 61.1721 145.827 59.6247 145.895 57.8307V57.6267C145.861 55.8072 145.207 54.2343 143.923 52.9165C142.639 51.5987 141.117 50.944 139.366 50.944C137.614 50.944 136.058 51.6157 134.809 52.9675C133.525 54.3194 132.887 55.8837 132.887 57.6777C132.887 59.4716 133.525 61.053 134.809 62.4389C136.058 63.7907 137.572 64.4624 139.366 64.4624ZM145.895 44.3209H153.488V71.094H145.895V67.5486C144.407 70.2523 141.848 71.5956 138.201 71.5956C134.553 71.5956 131.62 70.2438 129.095 67.5486C126.596 64.8535 125.346 61.5631 125.346 57.6777C125.346 53.7922 126.579 50.4764 129.044 47.8068C131.535 45.1031 134.638 43.7598 138.354 43.7598C139.799 43.7598 141.219 44.0743 142.605 44.695C143.991 45.3156 145.088 46.1914 145.895 47.3051V44.3209Z" fill="white"></path><path d="M175.755 43.8618L175.806 51.5562C175.066 51.2841 174.037 51.1481 172.72 51.1481C170.968 51.1481 169.582 51.7687 168.571 53.0185C167.559 54.2683 167.049 55.9518 167.049 58.0773V71.0855H159.609V44.3124H167.049V48.5634C168.469 45.3241 170.756 43.7087 173.935 43.7087C174.505 43.7087 175.117 43.7598 175.755 43.8618Z" fill="white"></path><path d="M86.3635 83.3372H84.085V92.2474H86.3635V83.3372Z" fill="white"></path><path d="M92.0763 92.2472V88.5402C92.0763 87.639 91.7617 87.2139 91.0305 87.2139C90.2228 87.2139 89.8828 87.656 89.8828 88.5658V92.2472H87.8848V85.5645H89.7552V86.2787H89.7807C90.2058 85.59 90.7925 85.335 91.6002 85.335C92.8075 85.335 94.0828 86.0066 94.0828 87.9876V92.2472H92.0848H92.0763Z" fill="white"></path><path d="M98.3436 87.4435C98.3351 87.0609 98.0545 86.9419 97.7315 86.9419C97.4084 86.9419 97.1533 87.1374 97.1533 87.384C97.1533 87.7411 97.4764 87.9281 98.4031 88.1662C99.993 88.5828 100.512 89.2289 100.512 90.1982C100.512 91.5925 99.3044 92.4767 97.791 92.4767C96.2776 92.4767 95.2148 91.6265 95.0703 90.2577H97.0598C97.1193 90.6828 97.4254 90.8698 97.8165 90.8698C98.1651 90.8698 98.5137 90.6658 98.5137 90.3512C98.5137 89.9771 98.2841 89.7816 97.2894 89.4755C95.6059 88.9568 95.1553 88.2937 95.1553 87.5115C95.1553 86.1852 96.3966 85.335 97.7485 85.335C99.1938 85.335 100.214 86.1257 100.316 87.4435H98.3521H98.3436Z" fill="white"></path><path d="M101.905 92.2474V87.0781H100.919V85.5647H101.905V83.3372H103.903V85.5647H104.872V87.0781H103.903V92.2474H101.905Z" fill="white"></path><path d="M105.731 85.5647H107.729V92.2474H105.731V85.5647ZM105.731 83.3372H107.729V84.859H105.731V83.3372Z" fill="white"></path><path d="M109.634 92.2474V87.0781H108.647V85.5647H109.634V83.3372H111.632V85.5647H112.601V87.0781H111.632V92.2474H109.634Z" fill="white"></path><path d="M117.761 92.2471V91.5329H117.736C117.447 92.145 116.919 92.4596 116.01 92.4596C114.598 92.4596 113.434 91.6179 113.434 89.7134V85.5559H115.432V89.3053C115.432 90.1811 115.746 90.5977 116.503 90.5977C117.26 90.5977 117.651 90.0875 117.651 89.2713V85.5644H119.649V92.2471H117.761Z" fill="white"></path><path d="M121.553 92.2474V87.0781H120.566V85.5647H121.553V83.3372H123.559V85.5647H124.52V87.0781H123.559V92.2474H121.553Z" fill="white"></path><path d="M135.65 86.7212C135.267 85.7434 134.417 85.1653 133.49 85.1653C132.07 85.1653 131.11 86.3811 131.11 87.7669C131.11 89.1528 132.096 90.4196 133.507 90.4196C134.408 90.4196 135.182 89.9094 135.65 88.9147H138.03C137.478 91.0572 135.633 92.4176 133.524 92.4176C132.283 92.4176 131.118 91.9839 130.2 91.0827C129.239 90.139 128.831 89.0082 128.831 87.6649C128.831 85.3013 130.863 83.1758 133.422 83.1758C134.655 83.1758 135.641 83.5159 136.534 84.2726C137.376 84.9952 137.886 85.8114 138.039 86.7297H135.658L135.65 86.7212Z" fill="white"></path><path d="M144.144 88.8973C144.144 87.9536 143.387 87.1969 142.443 87.1969C141.5 87.1969 140.802 87.9536 140.802 88.9228C140.802 89.8921 141.534 90.6063 142.46 90.6063C143.387 90.6063 144.135 89.8581 144.135 88.8973M144.135 92.2472V91.5245H144.11C143.821 92.1111 143.03 92.4767 142.146 92.4767C140.173 92.4767 138.796 90.9208 138.796 88.8973C138.796 86.8738 140.233 85.335 142.146 85.335C142.962 85.335 143.727 85.658 144.11 86.2787H144.135V85.5645H146.133V92.2472H144.135Z" fill="white"></path><path d="M148.063 92.2474V87.0781H147.068V85.5647H148.063V83.3372H150.061V85.5647H151.022V87.0781H150.061V92.2474H148.063Z" fill="white"></path><path d="M156.727 88.8973C156.727 87.9536 155.97 87.1969 155.026 87.1969C154.083 87.1969 153.385 87.9536 153.385 88.9228C153.385 89.8921 154.117 90.6063 155.043 90.6063C155.97 90.6063 156.718 89.8581 156.718 88.8973M156.718 92.2472V91.5245H156.693C156.404 92.1111 155.613 92.4767 154.729 92.4767C152.756 92.4767 151.379 90.9208 151.379 88.8973C151.379 86.8738 152.816 85.335 154.729 85.335C155.545 85.335 156.31 85.658 156.693 86.2787H156.718V85.5645H158.716V92.2472H156.718Z" fill="white"></path><path d="M162.245 83.3372H160.247V92.2474H162.245V83.3372Z" fill="white"></path><path d="M168.714 88.8976C168.714 87.9539 167.958 87.1972 167.014 87.1972C166.07 87.1972 165.373 87.9539 165.373 88.9231C165.373 89.8923 166.104 90.6065 167.039 90.6065C167.975 90.6065 168.714 89.8583 168.714 88.8976ZM165.211 83.5498L165.824 82.1384L168.723 83.6688H168.731L168.179 84.8506L165.203 83.5498H165.211ZM168.714 92.2474V91.5247H168.689C168.4 92.1114 167.609 92.477 166.725 92.477C164.752 92.477 163.375 90.9211 163.375 88.8976C163.375 86.8741 164.812 85.3352 166.725 85.3352C167.541 85.3352 168.306 85.6583 168.689 86.279H168.714V85.5648H170.712V92.2474H168.714Z" fill="white"></path><path d="M180.958 88.8722C180.958 87.9455 180.244 87.1973 179.258 87.1973C178.271 87.1973 177.574 87.8944 177.574 88.8722C177.574 89.8499 178.288 90.5981 179.249 90.5981C180.21 90.5981 180.958 89.8669 180.958 88.8722ZM180.95 92.2475V91.5248H180.924C180.55 92.137 179.878 92.4601 178.926 92.4601C176.903 92.4601 175.576 90.9042 175.576 88.8807C175.576 86.8572 176.937 85.3268 178.892 85.3268C179.666 85.3268 180.286 85.5564 180.856 86.1175V83.3203H182.854V92.2305H180.95V92.2475Z" fill="white"></path><path d="M188.968 88.1662C188.815 87.4775 188.211 87.0184 187.437 87.0184C186.715 87.0184 186.086 87.452 185.933 88.1662H188.968ZM185.907 89.518C186.018 90.2747 186.655 90.7848 187.471 90.7848C188.016 90.7848 188.364 90.5808 188.687 90.1557H190.736C190.099 91.6096 188.883 92.4683 187.471 92.4683C185.541 92.4683 183.935 90.9124 183.935 88.9314C183.935 86.9504 185.473 85.3435 187.437 85.3435C189.401 85.3435 190.966 86.9249 190.966 88.9909C190.966 89.1865 190.957 89.3395 190.915 89.518H185.907Z" fill="white"></path><path d="M87.112 103.3C88.0132 103.3 88.5658 102.875 88.5658 102.025C88.5658 101.251 87.9877 100.817 87.129 100.817H86.2618V103.3H87.1035H87.112ZM88.3533 107.73L86.2958 104.847H86.2703V107.73H84.0938V98.8193H87.01C87.9367 98.8193 88.6509 98.9384 89.1185 99.1424C90.0792 99.576 90.7594 100.622 90.7594 101.889C90.7594 103.3 89.9177 104.456 88.5403 104.694L90.9634 107.73H88.3618H88.3533Z" fill="white"></path><path d="M96.6609 103.649C96.5078 102.96 95.9042 102.501 95.1305 102.501C94.4078 102.501 93.7787 102.934 93.6256 103.649H96.6609ZM93.6001 105C93.7107 105.757 94.3483 106.267 95.1645 106.267C95.7086 106.267 96.0572 106.063 96.3803 105.638H98.4293C97.7917 107.092 96.5759 107.951 95.1645 107.951C93.2345 107.951 91.6191 106.395 91.6191 104.414C91.6191 102.433 93.158 100.826 95.122 100.826C97.086 100.826 98.6504 102.407 98.6504 104.473C98.6504 104.669 98.6334 104.822 98.5994 105H93.5916H93.6001Z" fill="white"></path><path d="M104.601 103.623C104.312 102.994 103.793 102.688 103.105 102.688C102.186 102.688 101.566 103.445 101.566 104.388C101.566 105.332 102.229 106.089 103.156 106.089C103.827 106.089 104.303 105.774 104.601 105.196H106.633C106.233 106.871 104.805 107.951 103.088 107.951C101.115 107.951 99.5508 106.352 99.5508 104.371C99.5508 102.39 101.132 100.817 103.054 100.817C104.814 100.817 106.242 101.923 106.616 103.623H104.593H104.601Z" fill="white"></path><path d="M112.523 103.649C112.37 102.96 111.767 102.501 110.993 102.501C110.27 102.501 109.641 102.934 109.488 103.649H112.523ZM109.462 105C109.573 105.757 110.211 106.267 111.027 106.267C111.571 106.267 111.92 106.063 112.243 105.638H114.292C113.654 107.092 112.438 107.951 111.027 107.951C109.097 107.951 107.481 106.395 107.481 104.414C107.481 102.433 109.02 100.826 110.984 100.826C112.948 100.826 114.513 102.407 114.513 104.473C114.513 104.669 114.504 104.822 114.462 105H109.454H109.462Z" fill="white"></path><path d="M115.737 107.73V101.047H117.616V101.761H117.642C117.99 101.047 118.543 100.817 119.317 100.817V102.832C118.126 102.841 117.744 103.291 117.744 104.048V107.73H115.746H115.737Z" fill="white"></path><path d="M124.868 103.623C124.579 102.994 124.06 102.688 123.371 102.688C122.453 102.688 121.832 103.445 121.832 104.388C121.832 105.332 122.496 106.089 123.422 106.089C124.094 106.089 124.57 105.774 124.868 105.196H126.9C126.5 106.871 125.072 107.951 123.354 107.951C121.382 107.951 119.817 106.352 119.817 104.371C119.817 102.39 121.399 100.817 123.32 100.817C125.08 100.817 126.509 101.923 126.883 103.623H124.859H124.868Z" fill="white"></path><path d="M133.142 104.38C133.142 103.436 132.385 102.679 131.441 102.679C130.498 102.679 129.8 103.436 129.8 104.405C129.8 105.375 130.532 106.089 131.458 106.089C132.385 106.089 133.133 105.34 133.133 104.38M133.133 107.73V107.007H133.108C132.819 107.594 132.028 107.959 131.144 107.959C129.171 107.959 127.794 106.403 127.794 104.38C127.794 102.356 129.231 100.817 131.144 100.817C131.96 100.817 132.725 101.14 133.108 101.761H133.133V101.047H135.131V107.73H133.133Z" fill="white"></path><path d="M145.818 104.397C145.818 103.462 145.096 102.688 144.135 102.688C143.174 102.688 142.477 103.436 142.477 104.397C142.477 105.358 143.2 106.097 144.152 106.097C145.104 106.097 145.827 105.323 145.827 104.397M140.564 109.957V101.047H142.443V101.778H142.477C143.004 101.115 143.744 100.817 144.569 100.817C146.473 100.817 147.825 102.373 147.825 104.456C147.825 106.361 146.49 107.959 144.569 107.959C143.786 107.959 143.098 107.721 142.554 107.126V109.957H140.556H140.564Z" fill="white"></path><path d="M153.742 103.649C153.58 102.96 152.985 102.501 152.212 102.501C151.489 102.501 150.86 102.934 150.707 103.649H153.742ZM150.681 105C150.792 105.757 151.429 106.267 152.246 106.267C152.79 106.267 153.138 106.063 153.461 105.638H155.51C154.873 107.092 153.657 107.951 152.246 107.951C150.316 107.951 148.7 106.395 148.7 104.414C148.7 102.433 150.239 100.826 152.203 100.826C154.167 100.826 155.731 102.407 155.731 104.473C155.731 104.669 155.714 104.822 155.68 105H150.673H150.681Z" fill="white"></path><path d="M156.956 107.73V101.047H158.835V101.761H158.861C159.209 101.047 159.762 100.817 160.535 100.817V102.832C159.345 102.841 158.954 103.291 158.954 104.048V107.73H156.956Z" fill="white"></path><path d="M170.33 104.38C170.33 103.436 169.574 102.679 168.63 102.679C167.686 102.679 166.989 103.436 166.989 104.405C166.989 105.375 167.72 106.089 168.647 106.089C169.574 106.089 170.322 105.34 170.322 104.38M170.322 107.73V107.007H170.296C170.007 107.594 169.216 107.959 168.332 107.959C166.36 107.959 164.982 106.403 164.982 104.38C164.982 102.356 166.419 100.817 168.332 100.817C169.148 100.817 169.914 101.14 170.296 101.761H170.322V101.047H172.32V107.73H170.322Z" fill="white"></path><path d="M179.742 98.8193H177.744V107.73H179.742V98.8193Z" fill="white"></path><path d="M186.332 104.38C186.332 103.436 185.576 102.679 184.632 102.679C183.688 102.679 182.991 103.436 182.991 104.405C182.991 105.375 183.722 106.089 184.649 106.089C185.576 106.089 186.324 105.34 186.324 104.38M186.324 107.73V107.007H186.298C186.009 107.594 185.218 107.959 184.334 107.959C182.362 107.959 180.984 106.403 180.984 104.38C180.984 102.356 182.421 100.817 184.334 100.817C185.15 100.817 185.916 101.14 186.298 101.761H186.324V101.047H188.322V107.73H186.324Z" fill="white"></path><path d="M93.1892 118.646C93.1892 121.044 91.4293 123.39 88.4281 123.39C85.7924 123.39 83.6924 121.333 83.6924 118.714C83.6924 116.095 85.8689 114.123 88.4621 114.123C90.4771 114.123 92.4155 115.483 92.9172 117.277H90.3665C89.9414 116.546 89.2613 116.121 88.4025 116.121C86.9657 116.121 85.9709 117.277 85.9709 118.705C85.9709 120.134 86.9147 121.384 88.4195 121.384C89.4823 121.384 90.273 120.865 90.5536 119.947H87.8924V118.127H93.1892V118.629V118.646Z" fill="white"></path><path d="M98.9286 119.862C98.9286 118.97 98.2569 118.179 97.3132 118.179C96.4375 118.179 95.7233 118.953 95.7233 119.862C95.7233 120.772 96.4205 121.546 97.3217 121.546C98.2229 121.546 98.9201 120.755 98.9201 119.862M97.3217 123.416C95.2897 123.416 93.7168 121.911 93.7168 119.862C93.7168 117.813 95.3152 116.309 97.3217 116.309C99.3282 116.309 100.927 117.813 100.927 119.837C100.927 121.86 99.3367 123.416 97.3217 123.416Z" fill="white"></path><path d="M103.461 123.212L101.063 116.529H103.138L104.413 120.695H104.439L105.714 116.529H107.78L105.374 123.212H103.461Z" fill="white"></path><path d="M112.898 119.131C112.745 118.443 112.142 117.984 111.368 117.984C110.645 117.984 110.016 118.417 109.863 119.131H112.898ZM109.838 120.483C109.948 121.24 110.586 121.75 111.402 121.75C111.946 121.75 112.295 121.546 112.618 121.121H114.667C114.029 122.575 112.813 123.433 111.402 123.433C109.472 123.433 107.865 121.877 107.865 119.896C107.865 117.915 109.404 116.309 111.368 116.309C113.332 116.309 114.896 117.89 114.896 119.956C114.896 120.152 114.888 120.305 114.845 120.483H109.838Z" fill="white"></path><path d="M115.755 123.212V116.529H117.634V117.235H117.659C118.008 116.529 118.561 116.3 119.334 116.3V118.315C118.144 118.323 117.753 118.774 117.753 119.53V123.212H115.755Z" fill="white"></path><path d="M124.342 123.212V119.505C124.342 118.604 124.027 118.179 123.296 118.179C122.488 118.179 122.148 118.621 122.148 119.53V123.212H120.15V116.529H122.021V117.235H122.046C122.471 116.546 123.058 116.3 123.866 116.3C125.073 116.3 126.348 116.971 126.348 118.952V123.212H124.35H124.342Z" fill="white"></path><path d="M132.539 119.862C132.539 118.919 131.782 118.162 130.838 118.162C129.894 118.162 129.197 118.919 129.197 119.888C129.197 120.857 129.928 121.571 130.864 121.571C131.799 121.571 132.539 120.823 132.539 119.862ZM132.539 123.212V122.49H132.513C132.224 123.076 131.433 123.442 130.549 123.442C128.577 123.442 127.199 121.886 127.199 119.862C127.199 117.839 128.628 116.292 130.549 116.292C131.365 116.292 132.13 116.615 132.513 117.227H132.539V116.521H134.537V123.204H132.539V123.212Z" fill="white"></path><path d="M139.943 123.212V119.505C139.943 118.604 139.628 118.179 138.897 118.179C138.089 118.179 137.749 118.621 137.749 119.53V123.212H135.751V116.529H137.621V117.235H137.647C138.072 116.546 138.659 116.3 139.466 116.3C140.674 116.3 141.949 116.971 141.949 118.952V123.212H139.951H139.943Z" fill="white"></path><path d="M145.207 124.258L145.64 123.356C143.932 122.991 142.801 121.511 142.801 119.853C142.801 117.855 144.382 116.3 146.304 116.3C148.064 116.3 149.492 117.405 149.866 119.105H147.843C147.553 118.476 147.035 118.17 146.346 118.17C145.428 118.17 144.807 118.927 144.807 119.87C144.807 120.814 145.47 121.571 146.397 121.571C147.069 121.571 147.545 121.256 147.843 120.678H149.875C149.492 122.234 148.234 123.305 146.601 123.407L146.363 123.858C146.457 123.824 146.533 123.824 146.618 123.824C147.196 123.824 147.638 124.326 147.638 124.921C147.638 125.652 147.069 126.17 146.287 126.17C145.572 126.17 145.071 125.745 144.969 125.04H145.887C145.947 125.244 146.057 125.38 146.287 125.38C146.567 125.38 146.72 125.201 146.72 124.921C146.72 124.674 146.55 124.513 146.312 124.513C146.176 124.513 146.074 124.589 145.989 124.691L145.207 124.266V124.258Z" fill="white"></path><path d="M155.758 119.862C155.758 118.919 155.001 118.162 154.058 118.162C153.114 118.162 152.417 118.919 152.417 119.888C152.417 120.857 153.148 121.571 154.075 121.571C155.001 121.571 155.749 120.823 155.749 119.862M155.749 123.212V122.49H155.724C155.435 123.076 154.644 123.442 153.76 123.442C151.787 123.442 150.41 121.886 150.41 119.862C150.41 117.839 151.847 116.292 153.76 116.292C154.576 116.292 155.341 116.615 155.724 117.227H155.749V116.521H157.747V123.204H155.749V123.212Z" fill="white"></path><path d="M167.524 119.836C167.524 118.909 166.81 118.161 165.824 118.161C164.838 118.161 164.141 118.858 164.141 119.836C164.141 120.814 164.855 121.562 165.815 121.562C166.776 121.562 167.524 120.831 167.524 119.836ZM167.516 123.211V122.489H167.49C167.116 123.101 166.445 123.424 165.492 123.424C163.469 123.424 162.143 121.868 162.143 119.845C162.143 117.821 163.503 116.291 165.458 116.291C166.232 116.291 166.853 116.52 167.422 117.09V114.293H169.42V123.203H167.516V123.211Z" fill="white"></path><path d="M175.287 119.131C175.134 118.443 174.53 117.984 173.756 117.984C173.034 117.984 172.405 118.417 172.252 119.131H175.287ZM172.226 120.483C172.337 121.24 172.974 121.75 173.79 121.75C174.335 121.75 174.683 121.546 175.006 121.121H177.055C176.418 122.575 175.202 123.433 173.79 123.433C171.861 123.433 170.245 121.877 170.245 119.896C170.245 117.915 171.784 116.309 173.748 116.309C175.712 116.309 177.276 117.89 177.276 119.956C177.276 120.152 177.259 120.305 177.225 120.483H172.218H172.226Z" fill="white"></path><path d="M180.15 114.302H178.152V123.212H180.15V114.302Z" fill="white"></path><path d="M192.23 123.212L192.298 116.538L192.281 116.512L190.376 123.212H188.871L186.941 116.453L187.018 123.212H184.918V114.302H187.843L189.62 120.168H189.637L191.388 114.302H194.321V123.212H192.23Z" fill="white"></path><path d="M200.632 119.862C200.632 118.919 199.875 118.162 198.932 118.162C197.988 118.162 197.291 118.919 197.291 119.888C197.291 120.857 198.022 121.571 198.949 121.571C199.875 121.571 200.623 120.823 200.623 119.862M200.623 123.212V122.49H200.598C200.309 123.076 199.51 123.442 198.634 123.442C196.662 123.442 195.284 121.886 195.284 119.862C195.284 117.839 196.721 116.292 198.634 116.292C199.45 116.292 200.215 116.615 200.598 117.227H200.623V116.521H202.621V123.204H200.623V123.212Z" fill="white"></path><path d="M203.838 123.212V116.529H205.717V117.235H205.742C206.091 116.529 206.644 116.3 207.417 116.3V118.315C206.227 118.323 205.836 118.774 205.836 119.53V123.212H203.838Z" fill="white"></path></svg>