<svg xmlns="http://www.w3.org/2000/svg" width="157" height="41" viewBox="0 0 157 41" fill="none"><path fill-rule="evenodd" clip-rule="evenodd" d="M73.8711 11.1535H76.3399V0.671143H73.8711V11.1535Z" fill="white"></path><path fill-rule="evenodd" clip-rule="evenodd" d="M82.5503 3.41602C83.0151 3.41602 83.44 3.48997 83.827 3.64224C84.2117 3.79233 84.5431 4.0055 84.8212 4.29045C85.0992 4.57322 85.3149 4.91256 85.4684 5.31279C85.6219 5.71521 85.6975 6.1633 85.6975 6.66142V11.1576H83.4021V7.07906C83.4021 6.57876 83.2665 6.1894 82.9996 5.91098C82.7349 5.6369 82.3857 5.49551 81.9542 5.49551C81.5227 5.49551 81.1735 5.6369 80.9089 5.91098C80.642 6.1894 80.5085 6.57876 80.5085 7.07906V11.1576H78.2109V3.49867H79.9102L80.2527 4.24912C80.4351 4.09468 80.6442 3.95329 80.8822 3.83148C81.0868 3.7336 81.3292 3.64006 81.6139 3.55088C81.8964 3.4617 82.21 3.41602 82.5503 3.41602Z" fill="white"></path><path fill-rule="evenodd" clip-rule="evenodd" d="M89.1864 8.66057C89.2331 8.9129 89.3399 9.11737 89.5111 9.26528C89.6824 9.41754 89.9137 9.4915 90.2095 9.4915C90.5031 9.4915 90.7322 9.42407 90.899 9.28268C91.0636 9.14564 91.1437 8.9912 91.1437 8.82589C91.1437 8.6932 91.0458 8.58444 90.8456 8.50178C90.6477 8.41913 90.4008 8.33647 90.1072 8.25381C89.8114 8.1668 89.4911 8.07109 89.1442 7.96233C88.7972 7.84922 88.4791 7.70348 88.1833 7.52077C87.8875 7.33805 87.6428 7.09443 87.4427 6.79642C87.2447 6.49624 87.1446 6.11993 87.1446 5.66314C87.1446 5.35209 87.2136 5.05626 87.3493 4.77348C87.4849 4.49071 87.6806 4.24491 87.9364 4.03174C88.1922 3.82074 88.5036 3.65108 88.8706 3.52709C89.2398 3.39658 89.6579 3.3335 90.1228 3.3335C91.1437 3.3335 91.9199 3.55537 92.4559 3.99693C92.9875 4.44503 93.3167 4.99535 93.4412 5.66314L91.2304 5.82846C91.1815 5.66314 91.0836 5.51305 90.9235 5.37166C90.7633 5.23463 90.5543 5.16502 90.294 5.16502C90.0316 5.16502 89.8403 5.2194 89.7135 5.33251C89.5912 5.44344 89.5267 5.58048 89.5267 5.7458C89.5267 5.89154 89.6268 6.0003 89.8247 6.0786C90.0249 6.15909 90.2696 6.23957 90.5654 6.32223C90.8612 6.40489 91.1793 6.50277 91.5285 6.61371C91.8732 6.72247 92.1957 6.87038 92.4871 7.05527C92.7829 7.23799 93.032 7.47944 93.2277 7.77744C93.4279 8.07544 93.5258 8.45393 93.5258 8.90855C93.5258 9.2196 93.4568 9.52195 93.31 9.80691C93.1721 10.0962 92.9653 10.3529 92.6917 10.5835C92.4203 10.8075 92.089 10.988 91.6975 11.1229C91.306 11.2556 90.8657 11.323 90.3786 11.323C89.3132 11.323 88.508 11.0946 87.9698 10.6378C87.4315 10.1854 87.1001 9.58068 86.9756 8.82589L89.1864 8.66057Z" fill="white"></path><path fill-rule="evenodd" clip-rule="evenodd" d="M95.5701 5.58045H94.3779V3.66627H94.9696C95.599 3.66627 95.9082 3.35957 95.9082 2.75051V1.66943H97.8654V3.49878H99.4846V5.58045H97.8654V8.07541C97.8654 8.41039 97.9633 8.67359 98.1546 8.86719C98.3481 9.06078 98.5927 9.15866 98.8863 9.15866C98.9775 9.15866 99.0576 9.15649 99.1265 9.14996C99.1933 9.14561 99.2555 9.13691 99.3134 9.12604C99.369 9.11516 99.4246 9.09776 99.4846 9.07601V11.0728C99.3934 11.1076 99.2911 11.1338 99.1777 11.1555C98.9508 11.2121 98.6817 11.2403 98.377 11.2403C97.4807 11.2403 96.7889 10.9967 96.2996 10.516C95.8125 10.0331 95.5701 9.33051 95.5701 8.41039V5.58045Z" fill="white"></path><path fill-rule="evenodd" clip-rule="evenodd" d="M101.099 1.41922C101.099 1.08642 101.228 0.794938 101.481 0.546965C101.737 0.296816 102.035 0.170654 102.375 0.170654C102.716 0.170654 103.011 0.296816 103.269 0.546965C103.523 0.794938 103.648 1.08642 103.648 1.41922C103.648 1.75203 103.523 2.04351 103.269 2.29365C103.011 2.5438 102.716 2.66779 102.375 2.66779C102.035 2.66779 101.737 2.5438 101.481 2.29365C101.228 2.04351 101.099 1.75203 101.099 1.41922ZM101.183 11.1554H103.481V3.49872H101.183V11.1554Z" fill="white"></path><path fill-rule="evenodd" clip-rule="evenodd" d="M106.035 5.58045H104.845V3.66627H105.439C106.064 3.66627 106.375 3.35957 106.375 2.75051V1.66943H108.332V3.49878H109.949V5.58045H108.332V8.07541C108.332 8.41039 108.428 8.67359 108.621 8.86719C108.815 9.06078 109.057 9.15866 109.353 9.15866C109.444 9.15866 109.522 9.15649 109.593 9.14996C109.66 9.14561 109.722 9.13691 109.78 9.12604C109.836 9.11516 109.891 9.09776 109.949 9.07601V11.0728C109.858 11.1076 109.756 11.1338 109.642 11.1555C109.418 11.2121 109.148 11.2403 108.844 11.2403C107.945 11.2403 107.256 10.9967 106.766 10.516C106.277 10.0331 106.035 9.33051 106.035 8.41039V5.58045Z" fill="white"></path><path fill-rule="evenodd" clip-rule="evenodd" d="M114.544 11.2394C114.077 11.2394 113.654 11.1632 113.267 11.0132C112.88 10.8652 112.551 10.6477 112.273 10.3649C111.995 10.0822 111.777 9.74066 111.626 9.34043C111.47 8.94236 111.395 8.4921 111.395 7.99397V3.5H113.692V7.57633C113.692 8.07663 113.826 8.46599 114.092 8.74224C114.359 9.02067 114.706 9.15771 115.14 9.15771C115.569 9.15771 115.918 9.02067 116.185 8.74224C116.45 8.46599 116.586 8.07663 116.586 7.57633V3.5H118.883V11.1545H117.182L116.839 10.4063C116.648 10.5629 116.432 10.6999 116.194 10.8239C115.99 10.9349 115.749 11.0306 115.471 11.1132C115.193 11.1981 114.882 11.2394 114.544 11.2394Z" fill="white"></path><path fill-rule="evenodd" clip-rule="evenodd" d="M121.267 5.58045H120.075V3.66627H120.669C121.294 3.66627 121.605 3.35957 121.605 2.75051V1.66943H123.563V3.49878H125.182V5.58045H123.563V8.07541C123.563 8.41039 123.661 8.67359 123.852 8.86719C124.045 9.06078 124.288 9.15866 124.584 9.15866C124.675 9.15866 124.755 9.15649 124.824 9.14996C124.891 9.14561 124.953 9.13691 125.011 9.12604C125.066 9.11516 125.122 9.09776 125.182 9.07601V11.0728C125.091 11.1076 124.988 11.1338 124.875 11.1555C124.648 11.2121 124.379 11.2403 124.074 11.2403C123.178 11.2403 122.486 10.9967 121.997 10.516C121.51 10.0331 121.267 9.33051 121.267 8.41039V5.58045Z" fill="white"></path><path fill-rule="evenodd" clip-rule="evenodd" d="M77.0184 25.6628C76.5313 25.6628 76.0665 25.565 75.6238 25.3714C75.1812 25.1778 74.792 24.9059 74.4584 24.5557C74.1225 24.2055 73.8556 23.7943 73.6577 23.318C73.4597 22.8394 73.3574 22.3196 73.3574 21.7518C73.3574 21.1841 73.4597 20.6642 73.6577 20.1857C73.8556 19.7115 74.1225 19.296 74.4584 18.948C74.792 18.6 75.1812 18.3281 75.6238 18.1323C76.0665 17.9365 76.5313 17.8386 77.0184 17.8386C77.3142 17.8386 77.5833 17.8756 77.828 17.9409C78.0727 18.0061 78.2773 18.0866 78.4508 18.1758C78.6532 18.2759 78.8266 18.3824 78.9757 18.5042V15.0957H81.2732V25.5802H79.5695L79.2314 24.8297C79.0491 24.9842 78.8511 25.1256 78.6376 25.2496C78.4441 25.3561 78.2106 25.454 77.937 25.5367C77.6656 25.6215 77.3587 25.6628 77.0184 25.6628ZM75.6594 21.7518C75.6594 22.2956 75.8218 22.735 76.151 23.0765C76.4802 23.4159 76.8805 23.5812 77.3587 23.5812C77.8369 23.5812 78.2395 23.4159 78.5664 23.0765C78.8978 22.735 79.0624 22.2956 79.0624 21.7518C79.0624 21.208 78.8978 20.7665 78.5664 20.4293C78.2395 20.09 77.8369 19.9203 77.3587 19.9203C76.8805 19.9203 76.4802 20.09 76.151 20.4293C75.8218 20.7665 75.6594 21.208 75.6594 21.7518Z" fill="white"></path><path fill-rule="evenodd" clip-rule="evenodd" d="M90.209 23.3346C90.1067 23.6456 89.9533 23.9415 89.7486 24.2308C89.544 24.5222 89.2904 24.7811 88.9813 25.0073C88.6766 25.2357 88.3185 25.4162 87.9204 25.5489C87.5156 25.6794 87.0596 25.7447 86.5481 25.7447C86.0165 25.7447 85.5138 25.6446 85.0445 25.4402C84.573 25.2357 84.1571 24.9486 83.8012 24.5897C83.4431 24.2286 83.1606 23.8088 82.9494 23.3237C82.7403 22.8408 82.6357 22.3166 82.6357 21.751C82.6357 21.1876 82.7403 20.6612 82.9494 20.1805C83.1606 19.6955 83.4453 19.2756 83.8101 18.9146C84.1726 18.5556 84.5952 18.2707 85.0734 18.064C85.5583 17.8596 86.0787 17.7595 86.6348 17.7595C87.1686 17.7595 87.6668 17.8509 88.1317 18.0401C88.5965 18.2272 89.0035 18.4969 89.3483 18.8471C89.6952 19.1995 89.9688 19.6193 90.1623 20.1131C90.3625 20.6069 90.4626 21.1528 90.4626 21.751C90.4626 21.8402 90.4559 21.9294 90.4426 22.012C90.4359 22.0947 90.4248 22.1752 90.4137 22.2513C90.4003 22.3405 90.3892 22.4253 90.3781 22.4993H85.0178C85.109 22.7908 85.2914 23.0561 85.5716 23.2976C85.8474 23.5456 86.2033 23.6652 86.6348 23.6652C86.8483 23.6652 87.0329 23.6435 87.1886 23.5912C87.3399 23.5434 87.4622 23.4825 87.5534 23.4151C87.6668 23.352 87.7536 23.2671 87.8269 23.1671L90.209 23.3346ZM86.6348 19.839C86.2033 19.839 85.8474 19.9608 85.5716 20.211C85.2914 20.4633 85.109 20.7526 85.0178 21.0876H88.2518C88.1606 20.7526 87.976 20.4633 87.6979 20.211C87.4199 19.9608 87.0663 19.839 86.6348 19.839Z" fill="white"></path><path fill-rule="evenodd" clip-rule="evenodd" d="M100.163 23.3348C100.846 23.3348 101.38 23.176 101.774 22.8584C102.163 22.543 102.423 22.1754 102.546 21.7512L105.099 21.9209C104.974 22.4168 104.77 22.8954 104.485 23.3522C104.2 23.8068 103.851 24.2005 103.431 24.542C103.01 24.8792 102.525 25.1511 101.974 25.3577C101.425 25.56 100.822 25.6623 100.163 25.6623C99.4383 25.6623 98.7533 25.5296 98.1127 25.2577C97.4722 24.9858 96.9139 24.6073 96.4357 24.1222C95.9597 23.6437 95.5794 23.0803 95.3014 22.4364C95.0234 21.7926 94.8877 21.0943 94.8877 20.3374C94.8877 19.5934 95.0234 18.8995 95.3014 18.2492C95.5794 17.5988 95.9597 17.0354 96.4357 16.5525C96.9139 16.0674 97.4722 15.6911 98.1127 15.417C98.7533 15.1473 99.4383 15.0125 100.163 15.0125C100.8 15.0125 101.387 15.1147 101.925 15.3192C102.463 15.5236 102.941 15.7955 103.355 16.1327C103.769 16.4742 104.116 16.8701 104.4 17.3247C104.685 17.7793 104.89 18.2579 105.014 18.7582L102.461 18.9235C102.394 18.7125 102.296 18.5124 102.172 18.3231C102.047 18.1339 101.885 17.9686 101.691 17.825C101.502 17.6793 101.278 17.5661 101.024 17.477C100.766 17.3878 100.481 17.3399 100.163 17.3399C99.7786 17.3399 99.4139 17.4161 99.0758 17.5683C98.7311 17.7162 98.4375 17.9251 98.1795 18.1926C97.9259 18.458 97.7235 18.7712 97.5767 19.1388C97.4299 19.5042 97.3543 19.9067 97.3543 20.3374C97.3543 20.768 97.4299 21.1705 97.5767 21.5359C97.7235 21.9035 97.9259 22.2167 98.1795 22.4843C98.4375 22.7497 98.7311 22.9585 99.0758 23.1086C99.4139 23.2587 99.7786 23.3348 100.163 23.3348Z" fill="white"></path><path fill-rule="evenodd" clip-rule="evenodd" d="M106.291 15.8448C106.291 15.512 106.418 15.2205 106.674 14.9703C106.929 14.7202 107.227 14.5962 107.565 14.5962C107.908 14.5962 108.204 14.7202 108.462 14.9703C108.715 15.2205 108.84 15.512 108.84 15.8448C108.84 16.1754 108.715 16.4669 108.462 16.717C108.204 16.9693 107.908 17.0912 107.565 17.0912C107.227 17.0912 106.929 16.9693 106.674 16.717C106.418 16.4669 106.291 16.1754 106.291 15.8448ZM106.376 25.581H108.673V17.9221H106.376V25.581Z" fill="white"></path><path fill-rule="evenodd" clip-rule="evenodd" d="M117.779 23.3347C117.677 23.6457 117.524 23.9416 117.319 24.2309C117.114 24.5224 116.859 24.7812 116.552 25.0074C116.249 25.2358 115.891 25.4164 115.491 25.549C115.086 25.6796 114.63 25.7448 114.118 25.7448C113.585 25.7448 113.084 25.6448 112.615 25.4403C112.143 25.2358 111.727 24.9487 111.372 24.5898C111.013 24.2287 110.729 23.8089 110.52 23.3238C110.311 22.8409 110.206 22.3167 110.206 21.7511C110.206 21.1878 110.311 20.6614 110.52 20.1806C110.729 19.6956 111.016 19.2758 111.38 18.9147C111.743 18.5558 112.166 18.2708 112.646 18.0642C113.129 17.8597 113.649 17.7596 114.205 17.7596C114.739 17.7596 115.235 17.851 115.702 18.0402C116.167 18.2273 116.572 18.497 116.919 18.8472C117.266 19.1996 117.537 19.6194 117.735 20.1132C117.933 20.607 118.033 21.153 118.033 21.7511C118.033 21.8403 118.026 21.9295 118.015 22.0122C118.008 22.0948 117.995 22.1753 117.984 22.2514C117.971 22.3406 117.96 22.4255 117.948 22.4994H112.588C112.677 22.7909 112.862 23.0563 113.14 23.2977C113.418 23.5457 113.774 23.6653 114.205 23.6653C114.419 23.6653 114.603 23.6436 114.759 23.5914C114.91 23.5435 115.033 23.4826 115.124 23.4152C115.235 23.3521 115.326 23.2673 115.397 23.1672L117.779 23.3347ZM115.139 16.9265H113.353L111.736 14.7622H114.034L115.139 16.9265ZM114.205 19.8391C113.774 19.8391 113.418 19.9609 113.14 20.2111C112.862 20.4634 112.677 20.7527 112.588 21.0877H115.82C115.731 20.7527 115.546 20.4634 115.268 20.2111C114.99 19.9609 114.637 19.8391 114.205 19.8391Z" fill="white"></path><path fill-rule="evenodd" clip-rule="evenodd" d="M123.65 17.8416C124.115 17.8416 124.54 17.9155 124.924 18.0678C125.311 18.2157 125.643 18.431 125.921 18.7138C126.199 18.9966 126.415 19.3381 126.568 19.7383C126.721 20.1386 126.797 20.5888 126.797 21.0848V25.5809H124.5V21.5046C124.5 21.0021 124.366 20.6128 124.099 20.3365C123.832 20.0624 123.485 19.9232 123.049 19.9232C122.622 19.9232 122.273 20.0624 122.008 20.3365C121.742 20.6128 121.606 21.0021 121.606 21.5046V25.5809H119.311V17.9242H121.01L121.352 18.6747C121.532 18.5202 121.744 18.3788 121.982 18.2548C122.186 18.1591 122.429 18.0656 122.714 17.9764C122.996 17.8872 123.31 17.8416 123.65 17.8416Z" fill="white"></path><path fill-rule="evenodd" clip-rule="evenodd" d="M132.073 17.7588C132.458 17.7588 132.809 17.8001 133.13 17.885C133.446 17.9676 133.73 18.0785 133.979 18.2243C134.228 18.3678 134.446 18.5288 134.633 18.7072C134.82 18.8855 134.985 19.0683 135.118 19.2553C135.438 19.7012 135.67 20.1994 135.819 20.754L133.519 20.9194C133.439 20.7192 133.337 20.5409 133.214 20.3886C133.101 20.2537 132.95 20.1298 132.763 20.0123C132.576 19.8948 132.345 19.8383 132.073 19.8383C131.597 19.8383 131.192 20.0101 130.866 20.3538C130.536 20.6997 130.37 21.163 130.37 21.7525C130.37 22.3398 130.536 22.8053 130.866 23.1511C131.192 23.4948 131.597 23.6666 132.073 23.6666C132.345 23.6666 132.576 23.6101 132.763 23.5013C132.95 23.3904 133.101 23.2664 133.214 23.1359C133.337 22.9771 133.439 22.7944 133.519 22.5856L135.819 22.7509C135.67 23.3077 135.438 23.8037 135.118 24.2474C134.985 24.4367 134.82 24.6194 134.633 24.7978C134.446 24.9739 134.228 25.1371 133.979 25.2806C133.73 25.4242 133.446 25.5373 133.13 25.6222C132.809 25.7048 132.458 25.7483 132.073 25.7483C131.517 25.7483 130.999 25.6439 130.516 25.4373C130.034 25.235 129.611 24.9522 129.246 24.5911C128.884 24.2322 128.599 23.8059 128.39 23.3273C128.179 22.8444 128.074 22.3202 128.074 21.7525C128.074 21.1847 128.179 20.6627 128.39 20.1776C128.599 19.6991 128.884 19.2749 129.246 18.9138C129.611 18.5527 130.034 18.27 130.516 18.0677C130.999 17.861 131.517 17.7588 132.073 17.7588Z" fill="white"></path><path fill-rule="evenodd" clip-rule="evenodd" d="M137.093 15.8448C137.093 15.512 137.222 15.2205 137.478 14.9703C137.731 14.7202 138.029 14.5962 138.369 14.5962C138.712 14.5962 139.008 14.7202 139.264 14.9703C139.519 15.2205 139.644 15.512 139.644 15.8448C139.644 16.1754 139.519 16.4669 139.264 16.717C139.008 16.9693 138.712 17.0912 138.369 17.0912C138.029 17.0912 137.731 16.9693 137.478 16.717C137.222 16.4669 137.093 16.1754 137.093 15.8448ZM137.177 25.581H139.475V17.9221H137.177V25.581Z" fill="white"></path><path fill-rule="evenodd" clip-rule="evenodd" d="M148.58 23.3346C148.478 23.6456 148.324 23.9415 148.12 24.2308C147.915 24.5222 147.662 24.7811 147.355 25.0073C147.05 25.2357 146.694 25.4162 146.291 25.5489C145.889 25.6794 145.433 25.7447 144.919 25.7447C144.388 25.7447 143.887 25.6446 143.416 25.4402C142.944 25.2357 142.53 24.9486 142.172 24.5897C141.814 24.2286 141.532 23.8088 141.32 23.3237C141.114 22.8408 141.007 22.3166 141.007 21.751C141.007 21.1876 141.114 20.6612 141.32 20.1805C141.532 19.6955 141.819 19.2756 142.181 18.9146C142.544 18.5556 142.969 18.2707 143.449 18.064C143.932 17.8596 144.452 17.7595 145.008 17.7595C145.54 17.7595 146.038 17.8509 146.503 18.0401C146.968 18.2272 147.375 18.4969 147.719 18.8471C148.069 19.1995 148.34 19.6193 148.536 20.1131C148.736 20.6069 148.836 21.1528 148.836 21.751C148.836 21.8402 148.829 21.9294 148.818 22.012C148.807 22.0947 148.796 22.1752 148.785 22.2513C148.774 22.3405 148.76 22.4253 148.749 22.4993H143.389C143.48 22.7908 143.665 23.0561 143.943 23.2976C144.221 23.5456 144.574 23.6652 145.008 23.6652C145.222 23.6652 145.406 23.6435 145.56 23.5912C145.713 23.5434 145.835 23.4825 145.927 23.4151C146.038 23.352 146.129 23.2671 146.198 23.1671L148.58 23.3346ZM145.008 19.839C144.574 19.839 144.221 19.9608 143.943 20.211C143.665 20.4633 143.48 20.7526 143.389 21.0876H146.623C146.532 20.7526 146.347 20.4633 146.069 20.211C145.791 19.9608 145.437 19.839 145.008 19.839Z" fill="white"></path><path fill-rule="evenodd" clip-rule="evenodd" d="M151.984 23.0842C152.03 23.3387 152.137 23.541 152.308 23.691C152.477 23.8411 152.709 23.9151 153.004 23.9151C153.3 23.9151 153.529 23.8477 153.694 23.7084C153.859 23.5692 153.941 23.417 153.941 23.2495C153.941 23.1168 153.841 23.008 153.643 22.9254C153.445 22.8427 153.198 22.7601 152.902 22.6774C152.606 22.5926 152.288 22.4947 151.939 22.3837C151.594 22.2728 151.276 22.1271 150.98 21.9444C150.685 21.7616 150.438 21.5202 150.24 21.22C150.042 20.9198 149.942 20.5435 149.942 20.0889C149.942 19.7778 150.008 19.4798 150.146 19.1971C150.28 18.9143 150.478 18.6685 150.734 18.4575C150.989 18.2465 151.299 18.0768 151.668 17.9507C152.037 17.8223 152.455 17.7571 152.92 17.7571C153.941 17.7571 154.717 17.979 155.251 18.4227C155.785 18.8686 156.112 19.4211 156.238 20.0889L154.025 20.2542C153.979 20.0889 153.881 19.9366 153.718 19.7974C153.56 19.6582 153.349 19.5886 153.089 19.5886C152.829 19.5886 152.635 19.643 152.511 19.7561C152.386 19.867 152.324 20.0041 152.324 20.1716C152.324 20.3151 152.422 20.4261 152.622 20.5044C152.82 20.5827 153.067 20.6632 153.363 20.7458C153.656 20.8285 153.976 20.9264 154.323 21.0373C154.67 21.1482 154.993 21.294 155.284 21.4789C155.58 21.6616 155.827 21.903 156.025 22.201C156.223 22.5012 156.323 22.8797 156.323 23.3343C156.323 23.6432 156.252 23.9434 156.109 24.2327C155.969 24.522 155.76 24.7786 155.489 25.007C155.217 25.2333 154.886 25.4138 154.495 25.5465C154.101 25.6792 153.663 25.7466 153.173 25.7466C152.108 25.7466 151.305 25.5204 150.767 25.0636C150.229 24.609 149.897 24.0043 149.771 23.2495L151.984 23.0842Z" fill="white"></path><path fill-rule="evenodd" clip-rule="evenodd" d="M77.0184 40.0886C76.5313 40.0886 76.0665 39.9929 75.6238 39.7971C75.1812 39.6035 74.792 39.3316 74.4584 38.9814C74.1225 38.6334 73.8556 38.2201 73.6577 37.7416C73.4597 37.2652 73.3574 36.7431 73.3574 36.1776C73.3574 35.6099 73.4597 35.09 73.6577 34.6114C73.8556 34.1351 74.1225 33.7218 74.4584 33.3737C74.792 33.0235 75.1812 32.7516 75.6238 32.558C76.0665 32.3623 76.5313 32.2666 77.0184 32.2666C77.3142 32.2666 77.5833 32.2992 77.828 32.3666C78.0727 32.4319 78.2773 32.5102 78.4508 32.5994C78.6532 32.6994 78.8266 32.8104 78.9757 32.9322V29.5193H81.2732V40.0038H79.5695L79.2314 39.2555C79.0491 39.4121 78.8511 39.5492 78.6376 39.6731C78.4441 39.7841 78.2106 39.8798 77.937 39.9624C77.6656 40.0473 77.3587 40.0886 77.0184 40.0886ZM75.6594 36.1776C75.6594 36.7214 75.8218 37.1608 76.151 37.5001C76.4802 37.8394 76.8805 38.0069 77.3587 38.0069C77.8369 38.0069 78.2395 37.8394 78.5664 37.5001C78.8978 37.1608 79.0624 36.7214 79.0624 36.1776C79.0624 35.6338 78.8978 35.1922 78.5664 34.8529C78.2395 34.5157 77.8369 34.3461 77.3587 34.3461C76.8805 34.3461 76.4802 34.5157 76.151 34.8529C75.8218 35.1922 75.6594 35.6338 75.6594 36.1776Z" fill="white"></path><path fill-rule="evenodd" clip-rule="evenodd" d="M90.209 37.7584C90.1067 38.0695 89.9533 38.3696 89.7486 38.6568C89.544 38.9461 89.2904 39.2049 88.9813 39.4311C88.6766 39.6595 88.3185 39.8401 87.9204 39.9728C87.5156 40.1054 87.0596 40.1707 86.5481 40.1707C86.0165 40.1707 85.5138 40.0685 85.0445 39.864C84.573 39.6595 84.1571 39.3768 83.8012 39.0157C83.4431 38.6546 83.1606 38.2326 82.9494 37.7497C82.7403 37.2668 82.6357 36.7426 82.6357 36.177C82.6357 35.6115 82.7403 35.0872 82.9494 34.6044C83.1606 34.1215 83.4453 33.6995 83.8101 33.3384C84.1726 32.9795 84.5952 32.6967 85.0734 32.4901C85.5583 32.2856 86.0787 32.1833 86.6348 32.1833C87.1686 32.1833 87.6668 32.2769 88.1317 32.4661C88.5965 32.6532 89.0035 32.9229 89.3483 33.2731C89.6952 33.6233 89.9688 34.0432 90.1623 34.5391C90.3625 35.0329 90.4626 35.5788 90.4626 36.177C90.4626 36.2662 90.4559 36.3532 90.4426 36.4359C90.4359 36.5185 90.4248 36.599 90.4137 36.6751C90.4003 36.7643 90.3892 36.8492 90.3781 36.9253H85.0178C85.109 37.2146 85.2914 37.4821 85.5716 37.7236C85.8474 37.9694 86.2033 38.0912 86.6348 38.0912C86.8483 38.0912 87.0329 38.0673 87.1886 38.0173C87.3399 37.9672 87.4622 37.9085 87.5534 37.8411C87.6668 37.7758 87.7536 37.691 87.8269 37.5909L90.209 37.7584ZM86.6348 34.2628C86.2033 34.2628 85.8474 34.389 85.5716 34.637C85.2914 34.8871 85.109 35.1786 85.0178 35.5114H88.2518C88.1606 35.1786 87.976 34.8871 87.6979 34.637C87.4199 34.389 87.0663 34.2628 86.6348 34.2628Z" fill="white"></path><path fill-rule="evenodd" clip-rule="evenodd" d="M91.7402 40.0052H94.0378V29.5208H91.7402V40.0052Z" fill="white"></path><path fill-rule="evenodd" clip-rule="evenodd" d="M109.013 29.5188L105.524 36.9254L102.036 29.5188H99.8232V40.0033H102.29V34.761L104.759 40.0033H106.291L108.76 34.761V40.0033H111.224V29.5188H109.013Z" fill="white"></path><path fill-rule="evenodd" clip-rule="evenodd" d="M116.502 32.1821C116.966 32.1821 117.396 32.2583 117.794 32.4149C118.192 32.5715 118.535 32.789 118.824 33.0718C119.113 33.3546 119.335 33.6895 119.498 34.0789C119.655 34.4704 119.733 34.8881 119.733 35.3449V40.0063H118.03L117.692 39.2559C117.498 39.4103 117.285 39.5517 117.044 39.6714C116.84 39.7823 116.599 39.8802 116.321 39.9628C116.043 40.0455 115.734 40.089 115.394 40.089C114.544 40.089 113.89 39.8845 113.437 39.4799C112.983 39.0754 112.754 38.5577 112.754 37.9268C112.754 37.5484 112.834 37.2025 112.987 36.8827C113.139 36.5695 113.397 36.2976 113.761 36.0692C114.124 35.843 114.602 35.6646 115.198 35.5385C115.797 35.408 116.542 35.3449 117.438 35.3449C117.438 34.9664 117.34 34.6771 117.147 34.4813C116.955 34.2812 116.711 34.1811 116.417 34.1811C116.199 34.1811 116.028 34.2203 115.899 34.3051C115.765 34.39 115.661 34.4748 115.583 34.564C115.492 34.6749 115.43 34.7946 115.394 34.9294L113.099 34.7641C113.165 34.3856 113.285 34.0398 113.455 33.7222C113.626 33.4046 113.85 33.1327 114.128 32.9065C114.406 32.6803 114.742 32.4997 115.14 32.3757C115.534 32.2452 115.992 32.1821 116.502 32.1821ZM115.992 38.4228C116.422 38.4228 116.771 38.2945 117.038 38.0313C117.302 37.7702 117.438 37.4309 117.438 37.0111V36.6739C116.949 36.6739 116.548 36.7 116.237 36.7522C115.926 36.8001 115.681 36.8697 115.505 36.9589C115.329 37.0459 115.209 37.1525 115.149 37.2765C115.085 37.3961 115.056 37.5288 115.056 37.6745C115.056 37.8855 115.138 38.0617 115.301 38.2096C115.465 38.3532 115.696 38.4228 115.992 38.4228Z" fill="white"></path><path fill-rule="evenodd" clip-rule="evenodd" d="M125.266 32.2673C125.368 32.2673 125.462 32.2717 125.546 32.2826C125.631 32.2956 125.702 32.3065 125.76 32.3152C125.827 32.3261 125.889 32.3369 125.947 32.3478V34.6775C125.878 34.6579 125.798 34.6296 125.706 34.5948C125.629 34.5752 125.537 34.5556 125.435 34.5382C125.333 34.5208 125.219 34.5121 125.095 34.5121C124.663 34.5121 124.314 34.6535 124.047 34.9298C123.783 35.2082 123.647 35.5932 123.647 36.0957V40.0067H121.352V32.3478H123.053L123.393 33.1831C123.529 33.0156 123.694 32.8633 123.887 32.7328C124.045 32.6088 124.241 32.5001 124.477 32.4065C124.706 32.313 124.97 32.2673 125.266 32.2673Z" fill="white"></path><path fill-rule="evenodd" clip-rule="evenodd" d="M26.7015 14.9778C26.7081 12.6025 28.6009 10.6775 30.9986 10.5209H32.055V0.541016H31.0831H31.0564H30.9519C22.8492 0.610622 16.3013 7.03835 16.2857 14.9583H16.2812V14.9735V14.9887H16.2857C16.3013 22.9347 22.8514 29.3755 30.9496 29.4321H32.055V19.4522H30.9785C28.5965 19.2913 26.7081 17.364 26.7015 14.9866V14.98V14.9778Z" fill="white"></path><path fill-rule="evenodd" clip-rule="evenodd" d="M49.5965 14.959V0.541748C41.4316 0.541748 34.8147 6.99558 34.7991 14.959H34.7969V29.4306H49.5965H64.3916V15.0134V14.959V0.541748C56.2289 0.541748 49.6165 6.99558 49.5965 14.959Z" fill="white"></path><path fill-rule="evenodd" clip-rule="evenodd" d="M0.00222417 14.9462H0V29.4331H13.9767V0.541992C6.1943 0.963982 0.0200175 7.25032 0.00222417 14.9462Z" fill="white"></path></svg>