<svg xmlns="http://www.w3.org/2000/svg" width="163" height="42" viewBox="0 0 163 42" fill="none"><path d="M0.0581273 20.7624L0.112622 0.108989L30.8438 0.0544944L61.575 0V41.4194H0L0.0581273 20.766V20.7624ZM60.6922 20.7079V0.882809H0.886442V40.5293H60.6886V20.7079H60.6922ZM31.3924 35.3923C30.822 34.9745 30.7457 34.9672 30.3788 35.2978C29.7975 35.8246 29.6159 35.7374 29.7612 34.9999C29.8666 34.4732 29.783 34.2588 29.3144 33.8919L28.7367 33.4378H29.4488C30.0373 33.4378 30.2044 33.3215 30.4115 32.7729C30.5496 32.406 30.7312 32.1081 30.8148 32.1081C30.8983 32.1081 31.0691 32.406 31.1962 32.7729C31.3888 33.3288 31.545 33.4378 32.159 33.4378H32.8892L32.2643 33.9391C31.7012 34.3896 31.6649 34.5022 31.8829 35.0762C32.1953 35.8973 32.1335 35.9336 31.3815 35.3887L31.3924 35.3923ZM24.7477 33.6194C24.1773 33.2016 24.1011 33.1943 23.7341 33.5249C23.1529 34.0517 22.9712 33.9645 23.1165 33.227C23.2219 32.7003 23.1383 32.4859 22.6697 32.119L22.092 31.6649H22.8041C23.3926 31.6649 23.5597 31.5486 23.7668 31C23.9049 30.6331 24.0865 30.3352 24.1701 30.3352C24.2536 30.3352 24.4244 30.6331 24.5515 31C24.7441 31.5559 24.9003 31.6649 25.5143 31.6649H26.2445L25.6196 32.1662C25.0565 32.6167 25.0202 32.7293 25.2382 33.3033C25.5506 34.1244 25.4888 34.1607 24.7368 33.6158L24.7477 33.6194ZM38.0371 33.6194C37.4667 33.2016 37.3904 33.1943 37.0235 33.5249C36.4422 34.0517 36.2606 33.9645 36.4059 33.227C36.5112 32.7003 36.4277 32.4859 35.959 32.119L35.3814 31.6649H36.0717C36.6239 31.6649 36.8346 31.5232 37.1361 30.9455L37.5103 30.2262L37.8046 30.9455C38.0516 31.5486 38.2187 31.6649 38.8182 31.6649H39.5375L38.9126 32.1662C38.3495 32.6167 38.3132 32.7293 38.5312 33.3033C38.8436 34.1244 38.7818 34.1607 38.0298 33.6158L38.0371 33.6194ZM18.2447 28.3589C18.3501 27.8321 18.2665 27.6178 17.7979 27.2508L17.2202 26.7967H17.9323C18.5208 26.7967 18.6879 26.6805 18.895 26.1319C19.0331 25.7649 19.2147 25.467 19.2983 25.467C19.3818 25.467 19.5526 25.7649 19.6797 26.1319C19.8723 26.6877 20.0285 26.7967 20.6425 26.7967H21.3727L20.7478 27.2981C20.1956 27.7413 20.152 27.8684 20.3555 28.4061C20.6207 29.1 20.4681 29.1618 19.7488 28.6604C19.2837 28.3371 19.2111 28.3371 18.8514 28.6604C18.2738 29.1836 18.0921 29.0927 18.2375 28.3589H18.2447ZM41.2704 28.4097C41.3867 27.8248 41.314 27.6287 40.8345 27.2508L40.2568 26.7967H40.9689C41.5574 26.7967 41.7245 26.6805 41.9316 26.1319C42.0697 25.7649 42.2513 25.467 42.3349 25.467C42.4184 25.467 42.5892 25.7649 42.7163 26.1319C42.9089 26.6877 43.0687 26.7967 43.6791 26.804L44.4093 26.8112L43.8171 27.2545C43.3049 27.6359 43.2504 27.7849 43.4139 28.3552C43.6282 29.1 43.5047 29.1618 42.8035 28.6713C42.3603 28.3625 42.2622 28.3661 41.7209 28.7222L41.1251 29.1145L41.2668 28.4097H41.2704ZM16.421 21.7614C16.6244 21.231 16.5772 21.0893 16.0722 20.6534L15.4909 20.152H16.1885C16.7588 20.152 16.9296 20.0321 17.1367 19.4872C17.2747 19.1203 17.4418 18.8224 17.5109 18.8224C17.5799 18.8224 17.747 19.1203 17.8851 19.4872C18.0921 20.0321 18.2629 20.152 18.8333 20.152H19.5308L18.9495 20.6534C18.4409 21.0893 18.3973 21.231 18.6008 21.7614C18.8623 22.4517 18.7134 22.5207 18.0049 22.023C17.5581 21.7106 17.4673 21.7106 17.0204 22.023C16.312 22.5171 16.163 22.4517 16.4246 21.7614H16.421ZM43.0506 21.7324C43.1705 21.1329 43.1051 20.9186 42.7018 20.5807L42.2041 20.1666L42.8326 20.1593C43.323 20.152 43.5156 20.0067 43.7118 19.4872C44.0169 18.677 44.2531 18.6407 44.4384 19.3782C44.551 19.8323 44.7108 19.9304 45.3284 19.9304C46.2221 19.9304 46.2585 20.0576 45.5428 20.6207C45.0887 20.9803 45.0342 21.1438 45.194 21.7033C45.412 22.4662 45.3684 22.488 44.6454 22.0157C44.1586 21.696 44.0642 21.6997 43.5083 22.0666L42.9016 22.4626L43.0469 21.7287L43.0506 21.7324ZM18.2375 15.1204C18.3537 14.5355 18.2811 14.3393 17.8015 13.9615L17.2239 13.5073H17.9359C18.5245 13.5073 18.6916 13.3911 18.8987 12.8425C19.0367 12.4756 19.2184 12.1777 19.3019 12.1777C19.3855 12.1777 19.5562 12.4756 19.6834 12.8425C19.8723 13.3875 20.0394 13.5073 20.6025 13.5073H21.2891L20.7079 14.0087C20.1993 14.4446 20.1557 14.5863 20.3591 15.1167C20.6207 15.807 20.4717 15.876 19.7706 15.382C19.3273 15.0731 19.2293 15.0768 18.6879 15.4328L18.0921 15.8252L18.2338 15.1204H18.2375ZM41.2777 15.0877C41.3976 14.4882 41.3322 14.2739 40.9289 13.936L40.4312 13.5219L41.0597 13.5146C41.5502 13.5073 41.7427 13.362 41.9389 12.8425C42.0769 12.4756 42.2586 12.1777 42.3421 12.1777C42.4257 12.1777 42.5964 12.4756 42.7236 12.8425C42.9161 13.3947 43.076 13.5073 43.6609 13.5073H44.3657L43.799 13.9542C43.3121 14.3357 43.2576 14.4955 43.4211 15.0623C43.6391 15.8252 43.5955 15.847 42.8726 15.3747C42.3857 15.055 42.2913 15.0586 41.7354 15.4255L41.1287 15.8215L41.2741 15.0877H41.2777ZM23.1093 10.2449C23.2255 9.66004 23.1529 9.46386 22.6733 9.08603L22.0957 8.63191H22.8077C23.3963 8.63191 23.5634 8.51566 23.7705 7.96708C23.9085 7.60015 24.0902 7.30225 24.1737 7.30225C24.2573 7.30225 24.428 7.60015 24.5552 7.96708C24.7441 8.51202 24.9112 8.63191 25.4743 8.63191H26.1609L25.5797 9.13326C25.0711 9.56921 25.0275 9.7109 25.2309 10.2413C25.4925 10.9316 25.3435 11.0006 24.6424 10.5065C24.1991 10.1977 24.1011 10.2013 23.5597 10.5574L22.9639 10.9497L23.1056 10.2449H23.1093ZM36.4458 10.1796C36.5621 9.64187 36.4894 9.4239 36.0753 9.07877L35.5594 8.64644L36.1879 8.63918C36.6784 8.63191 36.8709 8.48659 37.0671 7.96708C37.2051 7.60015 37.3868 7.30225 37.4703 7.30225C37.5539 7.30225 37.7247 7.60015 37.8518 7.96708C38.0444 8.52292 38.2042 8.63191 38.8145 8.63918L39.5448 8.64644L38.9453 9.0933C38.4258 9.47839 38.375 9.62008 38.5639 10.1142C38.8509 10.8734 38.6874 10.9897 37.9826 10.5283C37.4558 10.1832 37.3686 10.1796 37.0162 10.4993C36.4422 11.0188 36.2787 10.9279 36.4458 10.1796ZM29.7612 8.443C29.8811 7.84719 29.8157 7.63285 29.4197 7.31315L28.9329 6.91715L29.6123 6.7682C30.0446 6.67375 30.397 6.40127 30.5786 6.01981L30.8656 5.42038L31.0945 6.02708C31.258 6.46667 31.5232 6.67011 32.0536 6.77184L32.7838 6.90989L32.2461 7.33131C31.792 7.68734 31.7375 7.85446 31.901 8.41393C32.119 9.17686 32.0754 9.19865 31.3524 8.72637C30.8656 8.40667 30.7712 8.4103 30.2153 8.77723L29.6086 9.17322L29.7539 8.43936L29.7612 8.443ZM142.427 30.7821V26.3535H143.2C143.738 26.3535 143.974 26.4552 143.974 26.6841C143.974 26.9529 144.105 26.9311 144.694 26.5751C146.525 25.4598 148.366 26.5351 148.752 28.9438C149.169 31.5486 147.059 33.6884 145.06 32.6894C144.668 32.4932 144.265 32.3333 144.163 32.3333C144.061 32.3333 143.974 32.98 143.974 33.772V35.2106H142.423V30.7821H142.427ZM146.517 31.3706C147.044 30.9855 147.226 28.9256 146.808 28.1264C146.441 27.4252 145.242 27.2508 144.628 27.8103C144.069 28.3189 143.876 29.4742 144.196 30.4369C144.585 31.6104 145.62 32.0282 146.517 31.3706ZM71.6202 32.7766C70.8427 32.4641 70.3741 31.5668 70.5375 30.6985C70.7228 29.7031 71.0171 29.4924 72.8917 29.0128C73.76 28.7912 74.5193 28.5587 74.581 28.4969C74.6391 28.4388 74.581 28.1809 74.443 27.9266C74.1414 27.3634 72.7246 27.2654 72.5211 27.7958C72.4376 28.0137 72.0924 28.1264 71.533 28.1264C70.5593 28.1264 70.5521 28.1155 70.9917 27.2617C71.4458 26.3789 72.4012 26.0483 74.0506 26.1973C76.0015 26.3753 76.205 26.6841 76.205 29.4669C76.205 30.6622 76.303 31.8974 76.4193 32.2098C76.63 32.7584 76.6082 32.7766 75.7726 32.7766C75.3004 32.7766 74.8717 32.6567 74.8208 32.5114C74.7554 32.3152 74.5193 32.3442 73.938 32.6203C73.0733 33.0309 72.3722 33.0781 71.6165 32.7729L71.6202 32.7766ZM74.0688 31.4324C74.4684 31.1199 74.6537 30.7639 74.6537 30.3061C74.6537 29.6704 74.621 29.6486 73.9344 29.7975C72.5466 30.0991 72.2196 30.3061 72.2196 30.8765C72.2196 31.396 72.6992 31.8683 73.2405 31.8828C73.3749 31.8865 73.7491 31.683 74.0724 31.4287L74.0688 31.4324ZM83.6089 32.762C82.6535 32.4859 81.9341 31.6322 81.7198 30.5169C81.6181 29.9937 81.5309 28.2426 81.5272 26.6296L81.5163 23.6942H83.2892V26.6514C83.2892 28.279 83.3946 29.9102 83.5217 30.2771C83.9177 31.4106 85.4545 31.8066 86.4208 31.0255C86.9222 30.6186 86.9476 30.4696 87.013 27.1491L87.0857 23.6978H88.8695L88.7895 27.407C88.7205 30.5205 88.6442 31.2108 88.31 31.7085C87.5761 32.7984 85.4036 33.2852 83.6089 32.7657V32.762ZM103.518 32.5804C102.228 31.9773 101.792 31.2217 101.788 29.5796C101.785 27.9956 102.388 26.9384 103.583 26.437C106.061 25.4017 108.415 26.9457 108.415 29.605C108.415 32.2643 105.89 33.6884 103.521 32.5804H103.518ZM105.864 31.4542C106.816 30.9455 107.012 28.7876 106.188 27.8757C105.607 27.2363 104.466 27.3308 103.881 28.0682C103.492 28.5623 103.419 28.882 103.503 29.7721C103.652 31.3379 104.695 32.0827 105.864 31.4542ZM123.045 32.7402C122.144 32.2461 122.049 31.8938 122.049 29.0782V26.3535H123.601V28.5696C123.601 30.4878 123.659 30.8438 124.044 31.2289C124.596 31.7811 124.959 31.7884 125.624 31.2471C126.1 30.862 126.155 30.6222 126.224 28.5878L126.3 26.3535H127.808V32.7766H127.034C126.518 32.7766 126.26 32.6712 126.26 32.4678C126.26 32.2243 126.085 32.2461 125.439 32.5767C124.52 33.0454 123.71 33.0999 123.048 32.7402H123.045ZM136.051 32.5549C135.328 32.228 135.001 31.901 134.67 31.1744C134.107 29.932 134.122 29.0964 134.728 27.8902C135.822 25.7214 139.015 25.467 140.418 27.4325C141.624 29.1254 141.039 31.6649 139.244 32.5368C138.074 33.1035 137.275 33.1072 136.054 32.5513L136.051 32.5549ZM138.666 31.2652C139.022 30.9782 139.193 30.5532 139.266 29.7685C139.4 28.3407 138.79 27.4579 137.664 27.4579C136.538 27.4579 135.927 28.3407 136.062 29.7685C136.174 30.971 136.763 31.6649 137.664 31.6649C137.94 31.6649 138.39 31.4832 138.663 31.2616L138.666 31.2652ZM151.85 32.8347C151.026 32.624 150.437 32.0827 150.088 31.2071C149.078 28.6858 150.412 26.1319 152.737 26.1319C154.452 26.1319 155.552 27.1382 155.847 28.9692L155.992 29.8811L153.823 29.9465C151.418 30.0155 151.127 30.2044 152.036 31.1127C152.719 31.7957 153.137 31.8175 153.743 31.2108C154.107 30.8475 154.368 30.7784 154.96 30.8874C155.818 31.0473 155.858 31.149 155.353 31.8683C154.724 32.7657 153.206 33.1871 151.847 32.8383L151.85 32.8347ZM154.168 28.5841C154.168 27.4942 152.493 27.0401 151.854 27.952C151.236 28.8312 151.404 29.0092 152.839 29.0092C154.005 29.0092 154.168 28.9547 154.168 28.5805V28.5841ZM158.037 32.7875C157.133 32.4205 156.722 31.3779 157.075 30.357C157.325 29.6377 157.79 29.3688 159.56 28.9256C161.078 28.5442 161.205 28.4497 160.893 27.9484C160.577 27.447 159.414 27.3417 159.051 27.7812C158.895 27.9702 158.43 28.1264 158.019 28.1264C157.082 28.1264 157.009 27.5633 157.841 26.7822C158.339 26.3135 158.622 26.2445 160.032 26.2445C162.39 26.2445 162.586 26.4734 162.586 29.2163C162.586 30.3861 162.68 31.6649 162.793 32.0609L163 32.7802H162.146C161.678 32.7802 161.26 32.6748 161.216 32.5477C161.165 32.3987 160.849 32.4387 160.319 32.6567C159.422 33.0309 158.735 33.0708 158.037 32.7875ZM160.758 31.2834C160.911 31.0836 161.035 30.6331 161.035 30.2807C161.035 29.674 160.998 29.6486 160.315 29.7975C158.927 30.0991 158.6 30.3061 158.6 30.8765C158.6 31.8756 160.094 32.1553 160.758 31.2798V31.2834ZM67.5694 28.2245V23.6687L68.2887 23.7378L69.0081 23.8068L69.0698 28.2935L69.1316 32.7802H67.573V28.2245H67.5694ZM90.824 29.5687V26.3571H91.5978C92.1355 26.3571 92.3716 26.4588 92.3716 26.6877C92.3716 26.9566 92.5024 26.9348 93.0909 26.5787C94.09 25.9684 95.2962 26.0084 96.07 26.6732C96.6803 27.2 96.6912 27.2545 96.7639 29.9937L96.8365 32.7802H95.0273V30.5496C95.0273 27.9992 94.8384 27.4615 93.9447 27.4615C92.873 27.4615 92.5896 28.0392 92.437 30.5314L92.299 32.7766H90.8167V29.565L90.824 29.5687ZM98.5767 29.5687V26.3571H99.3215C100.055 26.3571 100.066 26.3753 100.204 27.5197C100.382 29.0128 100.386 30.4587 100.204 31.7521C100.07 32.7439 100.037 32.7802 99.3178 32.7802H98.5731V29.5687H98.5767ZM113.417 28.239V23.6978H120.062V25.2491H115.19V27.2436H119.84V28.7767L117.57 28.8384L115.299 28.9002L115.234 30.0627L115.168 31.2253H120.287V32.7766H113.421V28.2354L113.417 28.239ZM129.806 29.5687V26.3571H130.452C130.808 26.3571 131.139 26.477 131.186 26.6187C131.248 26.804 131.43 26.7713 131.807 26.5097C132.443 26.0629 133.54 26.0156 133.697 26.4298C133.758 26.5933 133.715 26.9747 133.598 27.2799C133.424 27.734 133.271 27.8176 132.745 27.7413C131.731 27.5923 131.491 28.1009 131.39 30.5895L131.302 32.7802H129.802V29.5687H129.806ZM98.5767 24.4752C98.5767 23.7414 98.6167 23.7014 99.3287 23.7014C100.135 23.7014 100.459 24.1119 100.23 24.8385C100.135 25.1328 99.8846 25.2491 99.3396 25.2491C98.6167 25.2491 98.5804 25.2091 98.5804 24.4752H98.5767ZM104.778 24.3663C105.192 23.5525 105.301 23.4798 106.13 23.4798H107.031L106.329 24.3663C105.795 25.0384 105.472 25.2527 104.978 25.2527H104.328L104.778 24.3663ZM115.851 19.6035C115.851 19.3637 116.095 19.2729 116.709 19.2729C117.762 19.2729 118.318 18.7606 117.65 18.4009C117.406 18.2702 117.05 18.1648 116.861 18.1648C116.672 18.1648 116.516 18.0376 116.516 17.8814C116.516 17.7252 116.229 17.4273 115.877 17.2202C115.052 16.7334 114.522 15.5927 114.522 14.303C114.522 12.145 115.684 10.8553 117.624 10.8589C118.816 10.8589 119.524 11.1895 120.146 12.0287C120.542 12.5628 120.56 12.679 120.276 12.857C119.717 13.2131 118.852 13.0968 118.562 12.6282C118.206 12.0578 117.308 12.0578 116.738 12.6282C116.062 13.3039 116.117 15.1276 116.84 15.8506C117.138 16.1485 117.537 16.3955 117.726 16.3955C118.086 16.3955 118.838 15.7452 118.983 15.3093C119.038 15.1458 119.325 15.1058 119.786 15.2003C120.305 15.3057 120.505 15.4655 120.505 15.7816C120.505 16.2757 119.295 17.5036 118.809 17.5036C118.536 17.5036 118.54 17.5763 118.83 17.994C119.285 18.6443 119.266 18.9604 118.732 19.4945C118.166 20.0612 115.851 20.1484 115.851 19.6035ZM136.894 15.5055V11.0769H137.667C138.223 11.0769 138.441 11.175 138.441 11.4257C138.441 11.7127 138.539 11.6945 139.026 11.3167C140.178 10.4121 142.096 10.9279 142.757 12.3194C143.193 13.2385 143.189 15.342 142.75 16.1921C142.078 17.4927 140.483 18.0485 139.328 17.391C139.022 17.2166 138.699 17.0713 138.608 17.0676C138.517 17.064 138.441 17.707 138.441 18.499V19.9377H136.89V15.5091L136.894 15.5055ZM141.013 15.9233C141.591 15.2839 141.584 13.2785 141.002 12.6354C140.508 12.0905 139.291 12.0287 138.877 12.5264C138.721 12.7154 138.547 13.3911 138.496 14.0232C138.419 14.9605 138.492 15.2875 138.881 15.7816C139.469 16.5263 140.41 16.5917 141.013 15.9233ZM69.4513 17.3038C67.8491 16.5663 67.1516 15.2766 67.1371 13.006C67.1153 10.1541 68.6629 8.41757 71.2205 8.41757C72.8118 8.41757 73.869 8.86805 74.4284 9.78719C74.9843 10.6991 74.9225 10.8952 74.0179 11.1314C73.3894 11.2949 73.2405 11.244 72.8408 10.739C71.7727 9.3803 70.0362 9.58738 69.3241 11.1568C67.9472 14.194 70.3595 17.6235 72.423 15.56C72.7609 15.2221 73.0806 14.8116 73.1351 14.6408C73.2114 14.412 73.4512 14.372 74.0579 14.4882C75.0206 14.6699 75.0896 15.0005 74.3994 16.1158C73.4984 17.5763 71.2278 18.1212 69.4513 17.3038ZM77.9778 17.2348C76.8189 16.639 76.205 15.6181 76.205 14.2848C76.205 12.4247 77.4147 11.0842 79.2566 10.9061C81.48 10.6918 82.9623 12.0978 82.9078 14.3647C82.846 17.0023 80.3465 18.4554 77.9742 17.2348H77.9778ZM80.6299 15.9523C81.5054 15.0768 81.4764 13.1513 80.579 12.5192C79.3075 11.6291 77.9778 12.5519 77.9778 14.3248C77.9778 16.0976 79.5727 17.0095 80.6299 15.9523ZM100.568 17.4309C99.841 17.064 99.3905 16.0976 99.5685 15.2875C99.7611 14.4083 100.081 14.1976 101.908 13.7253C102.776 13.5037 103.536 13.2712 103.597 13.2094C103.656 13.1513 103.597 12.8934 103.459 12.6391C103.165 12.0869 102.093 12.0106 101.676 12.5083C101.523 12.6899 101.062 12.8389 100.651 12.8389C99.7611 12.8389 99.6412 12.3194 100.353 11.5528C100.935 10.9279 101.628 10.7681 103.162 10.8952C104.96 11.0442 105.218 11.4402 105.218 14.0269C105.218 15.1422 105.312 16.3774 105.425 16.7697L105.632 17.4891H104.778C104.31 17.4891 103.892 17.3837 103.848 17.2566C103.797 17.1076 103.481 17.1476 102.951 17.3655C101.963 17.7797 101.305 17.7942 100.568 17.42V17.4309ZM102.853 16.3556C103.496 16.0177 103.663 15.738 103.666 14.986C103.666 14.3938 103.63 14.3684 102.951 14.5173C101.563 14.8188 101.236 15.0259 101.236 15.5963C101.236 15.8978 101.41 16.2466 101.625 16.3701C102.126 16.6644 102.275 16.6608 102.856 16.3556H102.853ZM122.598 17.5072C121.693 17.1403 121.283 16.0976 121.635 15.0768C121.886 14.3575 122.351 14.0886 124.12 13.6454C125.639 13.2639 125.766 13.1695 125.453 12.6681C125.137 12.1668 123.975 12.0614 123.611 12.501C123.455 12.6899 122.99 12.8461 122.58 12.8461C121.588 12.8461 121.57 12.2176 122.54 11.4039C123.186 10.8625 123.379 10.8153 124.738 10.8916C126.947 11.0151 127.146 11.2694 127.146 13.9324C127.146 15.1022 127.241 16.381 127.353 16.777L127.56 17.4963H126.707C126.238 17.4963 125.82 17.391 125.777 17.2638C125.726 17.1149 125.41 17.1548 124.879 17.3728C123.982 17.747 123.295 17.787 122.598 17.5036V17.5072ZM125.319 16.0032C125.472 15.8034 125.595 15.3529 125.595 15.0005C125.595 14.3938 125.559 14.3684 124.876 14.5173C123.488 14.8188 123.161 15.0259 123.161 15.5963C123.161 16.5954 124.654 16.8751 125.319 15.9996V16.0032ZM129.584 17.2747C129.199 16.8896 129.141 16.5372 129.141 14.6336C129.141 12.6282 129.101 12.4211 128.698 12.2939C128.421 12.2067 128.254 11.9597 128.254 11.64C128.254 11.3203 128.414 11.0842 128.698 11.0115C129.014 10.9279 129.141 10.71 129.141 10.2449C129.141 9.75813 129.293 9.51835 129.751 9.28948C130.085 9.12236 130.431 8.94798 130.514 8.90802C130.598 8.86442 130.699 9.31127 130.736 9.89618C130.797 10.8734 130.852 10.9679 131.411 11.0333C131.891 11.0878 132.022 11.2186 132.022 11.6436C132.022 12.0324 131.898 12.1813 131.586 12.1813C130.994 12.1813 130.692 12.8316 130.696 14.1031C130.699 15.7017 130.881 16.1667 131.495 16.1667C131.931 16.1667 132.022 16.2793 132.022 16.8061C132.022 17.8015 130.42 18.1067 129.584 17.2711V17.2747ZM145.845 17.4019C145.471 17.2384 144.937 16.817 144.661 16.4682C144.221 15.9087 144.17 15.629 144.239 14.1177C144.312 12.5373 144.37 12.3484 145.02 11.7018C145.932 10.7899 147.687 10.5792 148.762 11.2549C149.551 11.7526 150.183 12.9406 150.183 13.9288V14.6154H145.947L146.016 15.2185C146.06 15.5963 146.307 15.9451 146.684 16.1558C147.24 16.4646 147.331 16.4537 147.978 15.9741C148.523 15.5709 148.839 15.4909 149.435 15.6036L150.197 15.7452L149.827 16.3737C149.126 17.5654 147.302 18.034 145.849 17.4019H145.845ZM148.508 13.2312C148.247 12.3811 147.93 12.1522 147.106 12.2249C146.528 12.2721 146.245 12.4356 146.049 12.8316C145.9 13.1295 145.831 13.4528 145.889 13.5509C145.951 13.649 146.597 13.729 147.331 13.729C148.61 13.729 148.657 13.7108 148.508 13.2312ZM84.6225 14.9642C84.6225 12.6282 84.5898 12.4211 84.1793 12.2903C83.9032 12.2031 83.7361 11.9561 83.7361 11.6364C83.7361 11.3167 83.8959 11.0805 84.1793 11.0079C84.5172 10.9207 84.6225 10.7063 84.6225 10.096C84.6225 8.89712 85.2292 8.41393 86.7405 8.41393C87.9539 8.41393 87.9721 8.42483 87.9031 9.02427C87.8631 9.3694 87.6887 9.64551 87.4998 9.66367C87.3182 9.68184 86.9948 9.70363 86.7805 9.71817C86.5044 9.73633 86.3918 9.93251 86.3918 10.4084C86.3918 10.9679 86.479 11.0733 86.944 11.0733C87.7069 11.0733 87.7541 12.1123 86.9985 12.2213C86.5262 12.2867 86.4971 12.4029 86.4463 14.3974C86.37 17.3619 86.3227 17.5 85.3891 17.5H84.6189V14.9678L84.6225 14.9642ZM88.6079 14.2848V11.0733H90.3808V17.4963H88.6079V14.2848ZM92.299 17.3474C92.219 17.2675 92.15 15.8215 92.15 14.1358V11.0733H92.9238C93.4651 11.0733 93.6977 11.175 93.6977 11.4039C93.6977 11.8434 93.8502 11.8217 94.5223 11.2949C95.4778 10.5428 97.6176 10.8916 97.9882 11.858C98.0645 12.0542 98.1262 13.4056 98.1262 14.8552V17.4963H96.6367L96.4769 15.1167C96.3897 13.8089 96.2153 12.61 96.0881 12.4574C95.743 12.0396 94.8602 12.1232 94.3625 12.6245C93.9774 13.0096 93.9193 13.362 93.9193 15.2839V17.5H93.1818C92.7749 17.5 92.3753 17.4346 92.2953 17.351L92.299 17.3474ZM106.991 14.2848V11.0733H107.743C108.215 11.0733 108.542 11.2004 108.625 11.4148C108.738 11.7054 108.851 11.6872 109.41 11.2731C109.941 10.8807 110.26 10.8117 111.121 10.9098C112.796 11.0987 112.974 11.4656 112.974 14.7534V17.4963H111.474L111.39 15.2003C111.336 13.7072 111.201 12.7771 111.005 12.541C110.635 12.0978 109.879 12.076 109.308 12.4937C108.938 12.7626 108.869 13.1404 108.803 15.1531L108.727 17.4963H106.994V14.2848H106.991ZM151.731 14.2848V11.0733H152.381C152.741 11.0733 153.093 11.175 153.169 11.2985C153.256 11.4402 153.482 11.4002 153.787 11.1895C154.375 10.7754 155.469 10.7536 155.621 11.1496C155.683 11.313 155.64 11.6945 155.523 11.9997C155.345 12.4647 155.2 12.541 154.626 12.4538C154.012 12.363 153.907 12.4356 153.609 13.1477C153.409 13.6272 153.278 14.6408 153.278 15.7198V17.5H151.727V14.2884L151.731 14.2848ZM88.8295 9.19139C88.8295 8.4539 88.8658 8.41757 89.6033 8.41757C90.3408 8.41757 90.3771 8.4539 90.3771 9.19139C90.3771 9.92888 90.3408 9.96521 89.6033 9.96521C88.8658 9.96521 88.8295 9.92888 88.8295 9.19139Z" fill="white"></path></svg>